<svg
  width="16"
  height="17"
  viewBox="0 0 16 17"
  fill="none"
  xmlns="http://www.w3.org/2000/svg"
>
  <path
    d="M13.8538 8.85354L9.35375 13.3535C9.25993 13.4474 9.13268 13.5001 9 13.5001C8.86732 13.5001 8.74007 13.4474 8.64625 13.3535C8.55243 13.2597 8.49972 13.1325 8.49972 12.9998C8.49972 12.8671 8.55243 12.7399 8.64625 12.646L12.2931 8.99979H2.5C2.36739 8.99979 2.24021 8.94711 2.14645 8.85334C2.05268 8.75958 2 8.6324 2 8.49979C2 8.36718 2.05268 8.24 2.14645 8.14624C2.24021 8.05247 2.36739 7.99979 2.5 7.99979H12.2931L8.64625 4.35354C8.55243 4.25972 8.49972 4.13247 8.49972 3.99979C8.49972 3.86711 8.55243 3.73986 8.64625 3.64604C8.74007 3.55222 8.86732 3.49951 9 3.49951C9.13268 3.49951 9.25993 3.55222 9.35375 3.64604L13.8538 8.14604C13.9002 8.19248 13.9371 8.24762 13.9623 8.30832C13.9874 8.36902 14.0004 8.43408 14.0004 8.49979C14.0004 8.5655 13.9874 8.63056 13.9623 8.69126C13.9371 8.75196 13.9002 8.8071 13.8538 8.85354Z"
    fill="currentColor"
  />
</svg>
