<svg
  fill="none"
  xmlns="http://www.w3.org/2000/svg"
  preserveAspectRatio="xMinYMin meet"
>
  <g>
    <path
      d="M70.3197 74H5.57486C3.54568 74 1.8946 72.3636 1.8946 70.3525V44.5324C1.8946 42.5213 3.54568 40.8849 5.57486 40.8849H70.3197C72.3489 40.8849 74 42.5213 74 44.5324V70.3525C74 72.3636 72.3489 74 70.3197 74Z"
      fill="#1A1A1A"
    />
    <path
      d="M32.9374 45.082C32.2064 44.3575 31.2233 43.9578 30.1898 43.9578H27.2909C26.2574 43.9578 25.2743 44.37 24.5433 45.082C23.8123 45.8065 23.3964 46.7934 23.3964 47.8052V59.9345C23.3964 60.5216 23.6359 61.0962 24.0644 61.5084L24.1022 61.5459C24.9845 62.4078 26.4087 62.4078 27.2783 61.5459C27.6942 61.1337 27.9337 60.5591 27.9337 59.972V57.786H27.9463V57.3238C27.9463 56.8991 28.2992 56.5493 28.7277 56.5493C28.942 56.5493 29.1437 56.6367 29.2823 56.7741C29.4209 56.9115 29.5092 57.1114 29.5092 57.3238V68.6286C29.5092 69.2157 29.7486 69.7903 30.1646 70.215L30.2024 70.2525C31.0846 71.1144 32.4962 71.1144 33.3785 70.2525L33.4037 70.2275C33.8196 69.8153 34.0591 69.2407 34.0591 68.6536V47.8177C34.0717 46.7934 33.6684 45.8065 32.9374 45.082ZM29.484 51.2779C29.484 51.6901 29.1437 52.0398 28.7151 52.0398C28.2866 52.0398 27.9463 51.7026 27.9463 51.2779V49.2417C27.9463 48.8295 28.2866 48.4797 28.7151 48.4797C28.9294 48.4797 29.1185 48.5672 29.2571 48.7046C29.3957 48.842 29.484 49.0294 29.484 49.2417V51.2779Z"
      fill="white"
    />
    <path
      d="M66.9168 53.0766L66.9294 53.0891C67.8116 53.9635 69.2484 53.9635 70.1433 53.0891C70.5718 52.6644 70.8113 52.0898 70.8113 51.5027V47.8677C70.8113 46.8433 70.408 45.869 69.677 45.1445C68.946 44.4075 67.9377 43.9953 66.8916 43.9953H64.0305C62.9844 43.9953 61.9887 44.4075 61.2451 45.1445C60.5267 45.869 60.1108 46.8558 60.1108 47.8677L60.1234 67.0422C60.1234 68.0665 60.5393 69.0533 61.2703 69.7778C62.0013 70.5024 62.9844 70.9021 64.0179 70.9021H66.8916C67.9251 70.9021 68.9333 70.4899 69.6644 69.7529C70.3828 69.0284 70.7861 68.054 70.7861 67.0422V62.8076C70.7861 62.208 70.5466 61.6334 70.1181 61.2211L70.0929 61.1961C69.2106 60.3217 67.7864 60.3342 66.9042 61.1961C66.4882 61.6084 66.2488 62.183 66.2488 62.7701L66.2362 65.6556C66.2362 66.0803 65.8833 66.4301 65.4547 66.4301C65.0262 66.4301 64.6733 66.0803 64.6733 65.6556V49.3042C64.6733 48.8795 65.0262 48.5297 65.4547 48.5297C65.8833 48.5297 66.2362 48.8795 66.2362 49.3042V51.4777C66.2362 52.0773 66.4882 52.6519 66.9168 53.0766Z"
      fill="white"
    />
    <path
      d="M14.6243 45.107C13.8933 44.3825 12.9102 43.9828 11.8767 43.9828H8.97785C7.94435 43.9828 6.96126 44.395 6.23025 45.107C5.49924 45.8315 5.09593 46.8184 5.09593 47.8302L5.10853 67.0422C5.10853 68.0415 5.51185 69.0034 6.21765 69.7154L6.26806 69.7654C6.98647 70.4774 7.96956 70.8896 8.99045 70.8896H11.9145C12.9354 70.8896 13.9059 70.4899 14.6243 69.7778C15.3427 69.0658 15.746 68.104 15.746 67.0922L15.7334 63.9318C15.7334 63.3447 15.4939 62.7826 15.078 62.3579L15.0402 62.3204C14.1579 61.446 12.7463 61.446 11.8641 62.3204C11.4482 62.7326 11.2087 63.3072 11.2087 63.8943V65.6431C11.2087 66.0679 10.8558 66.4176 10.4273 66.4176C9.99874 66.4176 9.64584 66.0679 9.64584 65.6431V60.3967C9.64584 59.922 10.0366 59.5473 10.5029 59.5473H13.074C13.679 59.5473 14.2462 59.3099 14.6747 58.8852L14.6873 58.8727C15.5695 57.9983 15.5695 56.5743 14.6873 55.6999C14.2588 55.2752 13.679 55.0378 13.0866 55.0378H10.5029C10.0239 55.0378 9.64584 54.6506 9.64584 54.1884V49.3167C9.64584 48.892 9.99874 48.5422 10.4273 48.5422C10.8558 48.5422 11.2087 48.892 11.2087 49.3167V50.1911C11.2087 50.7782 11.4482 51.3528 11.8767 51.765L11.8893 51.7775C12.7715 52.6519 14.2084 52.6519 15.0906 51.7775C15.5191 51.3528 15.7586 50.7782 15.7586 50.1911V47.8552C15.7712 46.8059 15.3553 45.8315 14.6243 45.107Z"
      fill="white"
    />
    <path
      d="M57.8926 50.8282C56.9977 49.9413 55.5609 49.9413 54.666 50.8282C54.2375 51.2529 53.998 51.8275 53.998 52.4271V68.6411C53.998 69.2407 54.2375 69.8278 54.6786 70.24L54.6912 70.2525C55.5861 71.1269 57.0229 71.1394 57.9052 70.265C58.3463 69.8403 58.5858 69.2657 58.5858 68.6536V68.6411L58.5606 52.4271C58.5606 51.815 58.3211 51.2404 57.8926 50.8282Z"
      fill="white"
    />
    <path
      d="M56.3045 44.1077L37.8654 44.1327C37.2604 44.1327 36.6806 44.37 36.2521 44.7947C35.3699 45.6816 35.3699 47.1057 36.2521 47.9801C36.6806 48.4048 37.2604 48.6421 37.8654 48.6421H47.5828C47.7844 48.7046 47.9357 48.8795 47.9357 49.1043L47.9483 68.6411C47.9483 69.2407 48.1878 69.8153 48.6163 70.24C49.4985 71.1144 50.948 71.1269 51.8302 70.2525C52.2713 69.8278 52.5108 69.2407 52.5108 68.6411L52.4604 49.0544C52.4604 48.8795 52.5486 48.7296 52.6999 48.6421H56.2793C56.8843 48.6421 57.4766 48.4048 57.8926 47.9676L57.9052 47.9551C58.7874 47.0682 58.8 45.6442 57.9178 44.7697C57.5018 44.345 56.9095 44.1077 56.3045 44.1077Z"
      fill="white"
    />
    <path
      d="M27.9211 65.7181C27.8581 65.2309 27.6438 64.7687 27.2783 64.419L27.2405 64.3815C26.3583 63.5196 24.9467 63.5196 24.0644 64.3815C23.6989 64.7438 23.472 65.2184 23.4216 65.7181H23.3964C23.3586 66.1053 23.0183 66.4176 22.615 66.4051C22.4007 66.4051 22.1991 66.3177 22.0604 66.1803C21.9218 66.0429 21.8336 65.843 21.8336 65.6307L21.8462 46.3562C21.8462 45.7691 21.6067 45.1945 21.1908 44.7697L21.153 44.7323C20.2707 43.8704 18.8591 43.8704 17.9768 44.7323C17.5483 45.1445 17.3215 45.7191 17.3215 46.3062L17.3089 67.0422C17.3089 68.0665 17.7248 69.0408 18.4432 69.7654C19.1742 70.4899 20.1573 70.9021 21.1908 70.9021H24.0644C25.0979 70.9021 26.0936 70.4899 26.8246 69.7654C27.0263 69.553 27.2153 69.3282 27.3666 69.0783C27.7069 68.5412 27.8959 67.9291 27.9463 67.3045C27.9463 67.2171 27.9589 67.1421 27.9589 67.0547V65.7306H27.9211V65.7181Z"
      fill="white"
    />
    <path
      d="M42.5539 50.1661H42.4783L39.403 50.2286C38.4073 50.2535 37.4747 50.6408 36.7689 51.3403L36.7311 51.3778C36 52.1023 35.5967 53.0891 35.6093 54.1134L35.6219 55.3376H35.6597L35.7102 59.3849C35.7228 60.3717 36.1261 61.3211 36.8319 62.0206C37.1974 62.3828 37.6133 62.6577 38.067 62.845C38.5208 63.0324 39.0249 63.1323 39.5291 63.1323H41.1549C41.5078 63.1323 41.7977 63.4196 41.7977 63.7694L41.8103 65.7681C41.7347 66.1178 41.4196 66.3801 41.0541 66.3801C40.8398 66.3801 40.6382 66.2927 40.4995 66.1553C40.3609 66.0179 40.2727 65.818 40.2727 65.6057V65.5432H40.2601C40.2223 65.0061 39.9828 64.5064 39.6047 64.1192L39.5921 64.1067C38.7098 63.2323 37.273 63.2323 36.3782 64.1067C35.9874 64.4939 35.7606 65.0061 35.7228 65.5432H35.7102V67.0672C35.7102 68.0915 36.1261 69.0658 36.8445 69.7903C37.5755 70.5149 38.5586 70.9146 39.5921 70.9146H42.4909C43.5244 70.9146 44.5075 70.5024 45.2385 69.7903C45.8813 69.1533 46.272 68.3163 46.3602 67.4294H46.3728V67.2546C46.3728 67.1921 46.3854 67.1296 46.3854 67.0672V65.5432H46.3728L46.3602 62.4078C46.3602 61.4085 45.9695 60.4591 45.2637 59.7471C44.5453 59.0226 43.5496 58.5979 42.5161 58.5979H41.2306C40.7264 58.5979 40.3105 58.1857 40.3105 57.686L40.2979 55.2876C40.3609 54.9254 40.6886 54.6506 41.0667 54.6506C41.281 54.6506 41.4826 54.738 41.6213 54.8754C41.7347 54.9878 41.8229 55.1502 41.8481 55.3251H41.8859C41.9616 55.7873 42.1884 56.212 42.5161 56.5493L42.5287 56.5618C43.411 57.4362 44.8478 57.4362 45.7427 56.5618C46.083 56.2245 46.2972 55.7873 46.3728 55.3251H46.398V53.9635C46.398 52.9517 45.9947 51.9899 45.2763 51.2779C44.5453 50.5533 43.5748 50.1661 42.5539 50.1661Z"
      fill="white"
    />
    <path
      d="M14.2084 50.0412C11.7128 50.0412 9.44418 49.2292 7.81831 47.7677C5.91516 46.0439 4.90687 43.4332 5.08332 40.6101C5.23457 38.1118 6.26806 35.6509 7.93174 33.8396C7.99476 33.7647 8.07038 33.7022 8.1334 33.6273L8.14601 33.6148C8.76359 32.9902 9.40637 32.4656 10.087 32.0284L10.1374 31.7161C10.339 30.6168 10.5155 29.6924 10.6793 28.9055C10.5533 28.918 10.4147 28.9305 10.276 28.9429L10.0113 28.9679C9.36856 29.0304 8.73838 29.0679 8.1208 29.0679C3.45745 29.0679 1.47868 27.1816 0.646843 25.6077C-1.31932 21.8727 1.73076 17.5381 2.72644 16.1141C4.50356 13.5783 6.75961 11.2299 9.43158 9.10635L9.67105 8.86901L9.82229 8.79406C10.4651 8.2944 11.1331 7.80722 11.8263 7.34504L11.9019 7.29507C18.7961 2.6607 27.1019 0 34.7397 0C35.8236 0 36.9075 0.0499662 37.9536 0.16239C44.0033 0.79946 49.0448 2.39838 53.3679 5.0341C57.4136 7.50743 60.9678 10.9926 64.207 15.6894C70.7483 25.1705 70.2567 40.3477 70.2315 40.9973L70.1181 43.9578H24.4929C23.951 44.8822 23.2578 45.7941 22.4259 46.6934C20.4472 48.792 17.3845 50.0412 14.2084 50.0412Z"
      fill="#1A1A1A"
    />
    <path
      d="M67.1058 40.8849H22.4889C22.1108 42.0466 21.3546 43.2833 20.1195 44.6074C17.6996 47.2056 12.5321 47.8801 9.91052 45.4943C7.27636 43.1084 7.81831 38.524 10.2256 35.9132C10.276 35.8633 10.3264 35.8133 10.3642 35.7633C11.0322 35.0888 11.8137 34.4892 12.7589 34.052C15.1158 32.9652 17.2206 33.2775 18.6574 33.8022C18.8969 33.8896 19.1238 33.9895 19.3254 34.077C19.6657 34.2394 19.9808 33.7772 19.6909 33.5398C18.9473 32.9153 17.8634 32.4781 16.6156 32.2907C16.2754 32.2407 15.9225 32.2032 15.5569 32.1908C14.5991 32.1533 13.8176 32.1783 13.1875 32.2532C13.3765 31.2164 13.5656 30.2046 13.7672 29.2927C14.6243 25.2329 12.0027 25.6577 9.69625 25.895C8.42329 26.0324 -1.06725 26.9068 5.28498 17.8629C6.96127 15.477 9.07868 13.316 11.4986 11.4173C11.4986 11.4173 11.4986 11.4173 11.5112 11.4048C12.1792 10.8801 12.885 10.368 13.5908 9.88082C13.5908 9.88082 13.6034 9.88082 13.6034 9.86833C20.7496 5.02161 29.8495 2.38589 37.6133 3.21033C48.9566 4.40952 55.8886 9.09385 61.6232 17.4132C67.6604 26.1823 67.1058 40.8849 67.1058 40.8849Z"
      fill="#E6E6E5"
    />
    <path
      d="M37.5503 8.98143C16.8551 11.105 16.6409 32.2907 16.6409 32.2907C16.3006 32.2407 15.9477 32.2032 15.5822 32.1908C14.6243 32.1533 13.8428 32.1783 13.2127 32.2532C13.4017 31.2164 13.5908 30.2046 13.7924 29.2927C14.6495 25.2329 12.0279 25.6577 9.72146 25.895C8.44849 26.0324 -1.04204 26.9068 5.31019 17.8629C6.98647 15.477 9.10388 13.316 11.5238 11.4173C7.67967 14.84 5.22196 20.5736 7.28896 22.5847C8.56193 23.8214 10.6793 23.1344 12.406 22.21C13.7546 21.4855 14.9898 20.5486 16.0611 19.4494C28.3748 6.85787 37.5503 8.98143 37.5503 8.98143Z"
      fill="#B7B7B7"
    />
    <path
      d="M61.1317 30.0172C61.1317 34.0145 59.9722 37.737 57.9556 40.8724H23.2956C23.0561 40.5101 22.8418 40.1229 22.6276 39.7481C22.6024 40.1104 22.5646 40.4851 22.5015 40.8724C22.1234 42.0341 21.3672 43.2708 20.1321 44.5949C17.7122 47.1931 12.5447 47.8677 9.92312 45.4818C7.28896 43.0959 7.83092 38.5115 10.2382 35.9007C10.2886 35.8508 10.339 35.8008 10.3769 35.7508C11.0448 35.0763 11.8263 34.4767 12.7715 34.0395C15.1284 32.9527 17.2332 33.265 18.67 33.7897C19.4893 34.1519 20.2203 34.6141 20.7875 35.1263C20.3589 33.4899 20.1321 31.766 20.1321 29.9922C20.1321 18.7748 29.3075 9.66847 40.6382 9.66847C51.9562 9.70594 61.1317 18.7998 61.1317 30.0172Z"
      fill="#F0F2F2"
    />
    <path
      d="M14.5063 17.6402C16.3456 15.68 16.9481 13.2721 15.8522 12.262C14.7563 11.2519 12.3768 12.0221 10.5376 13.9823C8.69836 15.9425 8.0958 18.3504 9.19174 19.3605C10.2877 20.3706 12.6671 19.6004 14.5063 17.6402Z"
      fill="#F7F8F8"
    />
    <path
      d="M64.9002 30.2546C65.0892 33.1776 64.9128 37.5621 61.7871 37.9119C59.2664 38.1867 57.7917 33.6273 57.6027 30.6918C57.4136 27.7687 57.9304 23.4841 60.678 23.4841C63.0474 23.4841 64.7111 27.3315 64.9002 30.2546Z"
      fill="#1A1A1A"
    />
    <path
      d="M64.3834 29.8423C64.5599 32.4156 64.3834 36.263 61.598 36.5628C59.342 36.8126 58.0312 32.8028 57.8674 30.2296C57.6909 27.6563 58.1698 23.8964 60.6275 23.8839C62.7324 23.8839 64.2196 27.2691 64.3834 29.8423Z"
      fill="#90A94F"
    />
    <path
      d="M64.4212 30.4669C64.5347 32.1158 64.3582 34.5891 62.14 34.814C60.3503 34.9889 59.342 32.4281 59.2411 30.7792C59.1403 29.1303 59.5436 26.707 61.4972 26.682C63.1609 26.657 64.3078 28.818 64.4212 30.4669Z"
      fill="#C8DF8A"
    />
    <path
      d="M62.0644 29.9173C62.1022 32.2532 61.8123 35.7259 60.073 35.8633C58.674 35.9757 57.7413 32.2907 57.7035 29.9548C57.6657 27.6188 58.1824 24.6334 59.7075 24.6084C61.2325 24.5834 62.0139 27.5814 62.0644 29.9173Z"
      fill="black"
    />
    <path
      d="M15.8435 41.5678C17.4952 39.6274 17.6266 37.0447 16.137 35.7991C14.6473 34.5536 12.1008 35.1169 10.4491 37.0573C8.79738 38.9977 8.666 41.5804 10.1556 42.826C11.6453 44.0715 14.1918 43.5082 15.8435 41.5678Z"
      fill="white"
    />
    <path
      d="M41.4574 12.8788C44.7974 10.5179 51.011 13.2785 54.1493 17.6256C57.2876 21.9727 57.0103 28.9055 53.6703 31.2664C50.3304 33.6273 44.6209 30.1546 41.4952 25.8076C38.3443 21.4605 38.1175 15.2397 41.4574 12.8788Z"
      fill="white"
    />
    <path
      d="M48.944 31.2289C47.8223 35.1263 44.079 40.5476 38.2813 39.1236C33.5928 37.9618 32.9248 31.1914 34.1851 27.0817C35.3699 23.1968 39.3022 18.0628 44.331 19.4868C49.3851 20.9234 50.0531 27.3315 48.944 31.2289Z"
      fill="#1A1A1A"
    />
    <path
      d="M48.5533 30.5419C47.545 34.0645 44.6335 38.9737 39.3526 37.6621C35.08 36.6003 34.0969 30.2795 35.1052 26.7569C36.1135 23.2343 39.4156 18.5125 44.0034 19.8116C48.6037 21.1232 49.5616 27.0192 48.5533 30.5419Z"
      fill="#90A94F"
    />
    <path
      d="M48.0617 30.9166C47.3811 33.315 45.4024 36.6377 41.8103 35.7508C38.8989 35.0263 38.2435 30.7417 38.9241 28.3433C39.6047 25.945 41.8481 22.7471 44.9738 23.634C48.1121 24.5209 48.7549 28.5307 48.0617 30.9166Z"
      fill="#C8DF8A"
    />
    <path
      d="M43.3228 28.6681C42.7556 31.4912 41.2053 35.5385 37.7267 34.9889C34.9161 34.5392 34.1221 29.7299 34.6893 26.9068C35.2564 24.0837 37.1344 20.711 40.1466 21.3106C43.1841 21.9227 43.8899 25.845 43.3228 28.6681Z"
      fill="black"
    />
    <path
      d="M43.0581 24.7208C43.5245 24.7208 43.9025 24.3461 43.9025 23.8839C43.9025 23.4216 43.5245 23.0469 43.0581 23.0469C42.5917 23.0469 42.2136 23.4216 42.2136 23.8839C42.2136 24.3461 42.5917 24.7208 43.0581 24.7208Z"
      fill="white"
    />
    <path
      d="M61.8249 27.5189C62.2913 27.5189 62.6693 27.1442 62.6693 26.682C62.6693 26.2197 62.2913 25.845 61.8249 25.845C61.3585 25.845 60.9804 26.2197 60.9804 26.682C60.9804 27.1442 61.3585 27.5189 61.8249 27.5189Z"
      fill="white"
    />
  </g>
</svg>
