<svg
  width="24"
  height="24"
  viewBox="0 0 24 24"
  fill="currentColor"
  xmlns="http://www.w3.org/2000/svg"
>
  <path
    d="M21.2096 3.1545C21.2096 3.1545 23.1523 2.397 22.9904 4.23664C22.9364 4.99415 22.4508 7.6454 22.073 10.5131L20.7779 19.0079C20.7779 19.0079 20.67 20.2524 19.6987 20.4688C18.7273 20.6852 17.2704 19.7113 17.0005 19.4949C16.7847 19.3326 12.9534 16.8977 11.6043 15.7074C11.2265 15.3827 10.7948 14.7334 11.6582 13.9759L17.3243 8.56525C17.9719 7.91595 18.6194 6.40095 15.9213 8.2406L8.36655 13.3808C8.36655 13.3808 7.50315 13.9218 5.8843 13.4349L2.37671 12.3527C2.37671 12.3527 1.08161 11.5411 3.29408 10.7295C8.69035 8.18645 15.3277 5.5893 21.2096 3.1545Z"
    fill="#currentColor"
  />
</svg>
